<svg width="266" height="78" viewBox="0 0 266 78" fill="none" xmlns="http://www.w3.org/2000/svg">
<path d="M36.648 17.7524C36.4829 16.2335 35.7565 15.1604 34.4688 14.5331C33.115 13.8397 31.365 13.493 29.2188 13.493C28.3273 13.493 27.4689 13.5756 26.6434 13.7406C25.851 13.8727 25.1576 14.1038 24.5632 14.434C23.9689 14.7312 23.4901 15.1274 23.1269 15.6227C22.7968 16.085 22.6317 16.6298 22.6317 17.2571C22.6317 17.7524 22.8298 18.2642 23.226 18.7925C23.6552 19.3208 24.4477 19.717 25.6033 19.9811L33.7259 21.7145C36.2683 22.2758 38.431 23.0683 40.214 24.0918C41.997 25.1154 43.4498 26.2876 44.5724 27.6083C45.695 28.929 46.504 30.3488 46.9993 31.8677C47.5276 33.3535 47.7917 34.8393 47.7917 36.3252C47.7917 39.7261 47.0983 42.6317 45.7116 45.042C44.3248 47.4194 42.4923 49.3674 40.214 50.8863C37.9687 52.4051 35.4263 53.5113 32.5867 54.2046C29.7471 54.9311 26.8745 55.2943 23.9689 55.2943C19.1152 55.2943 15.252 54.6339 12.3794 53.3132C10.7946 52.5537 9.47377 51.6127 8.41718 50.4901H0.245117L3.36536 36.9195H18.1742C17.943 38.3393 17.91 39.3794 18.0751 40.0397C18.2732 40.6671 18.6529 41.2449 19.2143 41.7732C19.7756 42.2685 20.4855 42.6482 21.3439 42.9123C22.2024 43.1765 23.1765 43.3086 24.2661 43.3086C26.5443 43.3086 28.3439 42.8958 29.6646 42.0704C31.0183 41.2449 31.6952 40.1388 31.6952 38.752C31.6952 37.9266 31.3981 37.2167 30.8037 36.6223C30.2094 36.028 29.1198 35.5162 27.5349 35.087L21.0468 33.4526C18.7025 32.8582 16.6388 32.0328 14.8558 30.9762C13.1058 29.8866 11.6365 28.6484 10.4479 27.2616C9.25915 25.8748 8.35115 24.3725 7.7238 22.7546C7.12946 21.1038 6.8323 19.4363 6.8323 17.7524C6.8323 14.9788 7.44314 12.5355 8.66482 10.4223C9.91956 8.30908 11.6035 6.5591 13.7167 5.17234C15.8299 3.75255 18.2567 2.69595 20.9973 2.00257C23.7378 1.27617 26.6269 0.912964 29.6646 0.912964C31.8438 0.912964 33.8414 1.11107 35.6574 1.50729C37.5065 1.87049 39.1409 2.38228 40.5607 3.04265C41.3861 3.40585 42.1291 3.78556 42.7894 4.18178H53.1902L50.0205 17.7524H36.648ZM41.6126 2.44832H66.9708L63.8506 16.0189H60.5322L61.7209 31.6696L78.5603 2.44832H95.1025L98.1237 33.6507L108.277 16.0189H103.721L106.841 2.44832H132.199L129.079 16.0189H124.324L101.591 53.7589H84.9494L81.6805 23.3489H81.4824L63.6525 53.7589H47.6055L43.5442 16.0189H38.4924L41.6126 2.44832ZM132.114 31.9667C132.18 32.7592 132.312 33.5186 132.51 34.245C132.84 35.4997 133.385 36.6058 134.144 37.5634C134.937 38.4879 135.96 39.2308 137.215 39.7921C138.47 40.3204 139.989 40.5845 141.772 40.5845C143.092 40.5845 144.298 40.4525 145.387 40.1883C146.51 39.9242 147.566 39.561 148.557 39.0987C149.548 38.6034 150.489 38.0256 151.38 37.3652C152.305 36.7049 153.213 35.9785 154.104 35.186L165 44.7449C161.665 48.3109 157.819 50.9358 153.46 52.6198C149.102 54.2707 144.413 55.0961 139.394 55.0961C136.159 55.0961 133.121 54.5679 130.281 53.5113C127.442 52.4547 124.965 50.9523 122.852 49.0042C120.739 47.0231 119.055 44.6293 117.8 41.8227C116.579 39.0162 115.968 35.8629 115.968 32.3629C115.968 27.6413 116.81 23.3489 118.494 19.4859C120.211 15.6227 122.505 12.3209 125.378 9.58029C128.251 6.80674 131.569 4.67706 135.333 3.19123C139.13 1.67239 143.125 0.912964 147.319 0.912964C150.654 0.912964 153.724 1.50729 156.531 2.69595C159.337 3.8516 161.748 5.41998 163.762 7.40107C165.809 9.34916 167.394 11.611 168.517 14.1864C169.672 16.7618 170.25 19.4363 170.25 22.2098C170.25 22.8701 170.217 23.6131 170.151 24.4385C170.085 25.264 169.986 26.1225 169.854 27.014C169.722 27.8724 169.557 28.7309 169.359 29.5894C169.16 30.4479 168.946 31.2403 168.715 31.9667H132.114ZM134.243 20.0802C134.111 20.3113 133.996 20.5424 133.897 20.7736H155.342C155.276 19.8821 154.979 19.0236 154.451 18.1981C153.955 17.3397 153.279 16.5802 152.42 15.9199C151.595 15.2595 150.604 14.7312 149.448 14.335C148.326 13.9057 147.071 13.6911 145.684 13.6911C144.033 13.6911 142.449 13.9388 140.93 14.434C139.444 14.9293 138.123 15.6557 136.967 16.6132C135.845 17.5378 134.937 18.6934 134.243 20.0802ZM175.547 31.9667C175.613 32.7592 175.745 33.5186 175.943 34.245C176.273 35.4997 176.818 36.6058 177.577 37.5634C178.37 38.4879 179.393 39.2308 180.648 39.7921C181.903 40.3204 183.422 40.5845 185.205 40.5845C186.525 40.5845 187.731 40.4525 188.82 40.1883C189.943 39.9242 190.999 39.561 191.99 39.0987C192.98 38.6034 193.922 38.0256 194.813 37.3652C195.738 36.7049 196.646 35.9785 197.537 35.186L208.433 44.7449C205.098 48.3109 201.252 50.9358 196.893 52.6198C192.535 54.2707 187.846 55.0961 182.827 55.0961C179.592 55.0961 176.554 54.5679 173.714 53.5113C170.875 52.4547 168.398 50.9523 166.285 49.0042C164.172 47.0231 162.488 44.6293 161.233 41.8227C160.012 39.0162 159.401 35.8629 159.401 32.3629C159.401 27.6413 160.243 23.3489 161.927 19.4859C163.644 15.6227 165.938 12.3209 168.811 9.58029C171.684 6.80674 175.002 4.67706 178.766 3.19123C182.563 1.67239 186.558 0.912964 190.752 0.912964C194.087 0.912964 197.157 1.50729 199.964 2.69595C202.77 3.8516 205.181 5.41998 207.195 7.40107C209.242 9.34916 210.827 11.611 211.95 14.1864C213.105 16.7618 213.683 19.4363 213.683 22.2098C213.683 22.8701 213.65 23.6131 213.584 24.4385C213.518 25.264 213.419 26.1225 213.287 27.014C213.155 27.8724 212.99 28.7309 212.792 29.5894C212.593 30.4479 212.379 31.2403 212.148 31.9667H175.547ZM177.676 20.0802C177.544 20.3113 177.429 20.5424 177.33 20.7736H198.775C198.709 19.8821 198.412 19.0236 197.884 18.1981C197.388 17.3397 196.712 16.5802 195.853 15.9199C195.028 15.2595 194.037 14.7312 192.881 14.335C191.759 13.9057 190.504 13.6911 189.117 13.6911C187.466 13.6911 185.882 13.9388 184.363 14.434C182.877 14.9293 181.556 15.6557 180.4 16.6132C179.278 17.5378 178.37 18.6934 177.676 20.0802ZM206.619 2.44832H232.373L231.828 6.06384C233.05 4.7431 234.685 3.62047 236.732 2.69595C238.911 1.7054 241.453 1.21013 244.359 1.21013C247.132 1.21013 249.807 1.7054 252.382 2.69595C254.958 3.65349 257.236 5.08979 259.217 7.00485C261.198 8.8869 262.783 11.2312 263.972 14.0378C265.161 16.8444 265.755 20.0802 265.755 23.7451C265.755 26.9149 265.342 29.8866 264.517 32.6601C263.691 35.4006 262.552 37.91 261.099 40.1883C259.646 42.4666 257.913 44.4972 255.899 46.2802C253.918 48.0632 251.739 49.5656 249.361 50.7872C247.017 52.0089 244.524 52.9499 241.883 53.6103C239.274 54.2377 236.616 54.5513 233.909 54.5513C232.687 54.5513 231.465 54.4523 230.244 54.2542C229.022 54.0561 227.85 53.7919 226.727 53.4617C225.604 53.0985 224.581 52.6858 223.656 52.2235C222.798 51.8273 222.071 51.3981 221.477 50.9358L218.555 63.5159H228.51L225.39 77.0863H198.595L212.76 16.0189H203.449L206.619 2.44832ZM230.045 20.4764C229.286 21.2027 228.593 22.0447 227.965 23.0022L225.439 33.8983C225.77 34.6577 226.199 35.3346 226.727 35.9289C227.453 36.7214 228.295 37.3818 229.253 37.91C230.211 38.4383 231.251 38.8511 232.373 39.1482C233.496 39.4124 234.618 39.5445 235.741 39.5445C237.524 39.5445 239.208 39.1978 240.793 38.5044C242.411 37.778 243.814 36.8204 245.003 35.6318C246.224 34.4101 247.199 32.9903 247.925 31.3724C248.651 29.7215 249.015 27.955 249.015 26.0729C249.015 24.488 248.767 23.1013 248.272 21.9126C247.776 20.7239 247.099 19.7335 246.241 18.941C245.382 18.1486 244.392 17.5543 243.269 17.1581C242.147 16.7288 240.942 16.5142 239.654 16.5142C238.564 16.5142 237.442 16.6628 236.286 16.9599C235.163 17.2241 234.074 17.6533 233.017 18.2477C231.96 18.842 230.97 19.5849 230.045 20.4764Z" fill="#FEFEFE"/>
</svg>
