<svg width="96" height="96" viewBox="0 0 96 96" fill="none" xmlns="http://www.w3.org/2000/svg">
<g id="Union">
<path id="Circle" fill-rule="evenodd" clip-rule="evenodd" d="M48 5.34058e-05C21.8182 5.34058e-05 0 21.8182 0 48C0 74.1817 21.8182 95.9999 48 95.9999C74.1818 95.9999 96 74.1817 96 48C96 21.8182 74.1818 5.34058e-05 48 5.34058e-05ZM48 82.0788C29.4115 82.0788 13.9211 66.5884 13.9211 48C13.9211 29.4115 29.4115 13.9211 48 13.9211C66.5885 13.9211 82.0789 29.4115 82.0789 48C82.0789 66.5884 66.5885 82.0788 48 82.0788Z" fill="#F2F2F2"/>
<path id="Mark" d="M66.7977 37.5893C64.0357 38.5842 61.7081 41.4761 52.754 55.0928C47.0817 63.5865 45.4879 65.8065 43.7802 67.5884C41.6419 69.8455 40.0085 70.5583 37.0238 70.5731C34.3064 70.5731 32.97 70.1425 31.0842 68.6279C27.9213 66.1035 24.016 62.1685 23.2735 60.7578C22.9914 60.2381 22.9617 60.0599 23.0953 59.7629C23.3774 59.1393 24.1496 58.9017 26.4512 58.768C27.6392 58.6938 28.8419 58.5453 29.1983 58.4117C31.9603 57.4168 34.2223 54.6213 43.1763 41.0047C48.8487 32.5109 50.5081 30.1944 52.2158 28.4125C54.3541 26.1555 55.9875 25.4427 58.9722 25.4279C61.6896 25.4279 63.026 25.8585 64.9118 27.3731C68.0747 29.8975 71.9801 33.8325 72.7225 35.2432C73.0047 35.7629 73.0344 35.9411 72.9007 36.238C72.6186 36.8617 71.8464 37.0993 69.5448 37.2329C68.3569 37.3072 67.1541 37.4557 66.7977 37.5893Z" fill="#F2F2F2"/>
</g>
</svg>
